<svg width="112" height="48" viewBox="0 0 112 48" fill="none" xmlns="http://www.w3.org/2000/svg">
    <path d="M51.907 35.38H56.012C56.0519 35.3826 56.0919 35.3773 56.1297 35.3642C56.1674 35.3512 56.2022 35.3307 56.232 35.304C56.2613 35.2777 56.2849 35.2456 56.3014 35.2099C56.3179 35.1741 56.327 35.1354 56.328 35.096V23.958C56.328 20.799 57.908 19.135 60.634 19.135C63.361 19.135 64.912 20.799 64.912 23.958V35.098C64.9129 35.1578 64.9324 35.2157 64.9679 35.2638C65.0035 35.3119 65.0531 35.3476 65.11 35.366C65.1479 35.3788 65.1881 35.3839 65.228 35.381H69.333C69.3728 35.3838 69.4128 35.3785 69.4506 35.3657C69.4883 35.3528 69.5232 35.3325 69.553 35.306C69.5824 35.2796 69.6061 35.2474 69.6226 35.2114C69.6391 35.1755 69.6481 35.1365 69.649 35.097V23.987C69.649 19.22 66.951 15.046 60.634 15.046C54.316 15.046 51.591 19.22 51.591 23.986V35.097C51.5917 35.1364 51.6007 35.1753 51.6172 35.2111C51.6337 35.2469 51.6575 35.2789 51.687 35.305C51.7168 35.3315 51.7516 35.3517 51.7894 35.3645C51.8273 35.3772 51.8672 35.3821 51.907 35.379V35.38ZM23.656 35.634C25.149 35.634 26.126 35.464 26.556 35.295C26.6194 35.2699 26.6745 35.2276 26.7152 35.1728C26.7558 35.118 26.7804 35.053 26.786 34.985V31.655C26.786 31.457 26.699 31.345 26.441 31.345C26.24 31.345 25.666 31.457 25.206 31.457C23.426 31.457 22.652 30.809 22.652 29.286V19.896H26.442C26.5248 19.8957 26.6043 19.8634 26.664 19.806C26.6933 19.7773 26.7166 19.7431 26.7325 19.7053C26.7485 19.6676 26.7568 19.627 26.757 19.586V15.948C26.7561 15.8659 26.7227 15.7875 26.664 15.73C26.6044 15.6716 26.5244 15.6386 26.441 15.638H22.508V12.48C22.508 12.141 22.364 12 22.106 12H18.23C17.915 12 17.771 12.142 17.771 12.48V29.767C17.771 33.97 20.153 35.634 23.656 35.634ZM7.178 35.859C11.801 35.859 15.103 33.067 15.103 29.429C15.103 25.339 12.346 24.156 8.586 23.366L6.719 22.971C5.313 22.661 4.537 22.011 4.537 20.912C4.537 19.502 5.973 18.741 7.954 18.741C10.739 18.741 12.634 19.981 12.92 19.981C12.9993 19.9756 13.0757 19.9493 13.1414 19.9046C13.2071 19.86 13.2598 19.7987 13.294 19.727L14.04 16.992C14.185 16.625 14.155 16.541 13.896 16.4C12.231 15.554 10.451 15.074 7.924 15.074C3.244 15.074 0 17.725 0 21.251C0 24.581 2.613 26.411 6.347 27.202L8.242 27.597C9.763 27.907 10.622 28.499 10.622 29.768C10.622 31.065 9.588 32.193 7.147 32.193C3.702 32.193 1.348 30.84 0.975 30.84C0.745 30.84 0.659 30.953 0.573 31.319L0.085 33.604C-0.059 34.083 0.085 34.394 0.401 34.534C1.579 35.182 4.794 35.859 7.178 35.859ZM38.5 31.939C35.485 31.939 32.73 29.711 32.73 25.509C32.73 21.307 35.486 19.132 38.5 19.132C41.543 19.132 44.242 21.304 44.242 25.509C44.242 29.739 41.542 31.939 38.5 31.939ZM38.5 36C44.529 36 48.92 31.573 48.92 25.509C48.92 19.445 44.529 15.046 38.5 15.046C32.5 15.046 28.078 19.446 28.078 25.509C28.078 31.572 32.499 36 38.5 36ZM92 25.283C92 19.049 88.353 15.046 82.552 15.046C77.097 15.046 72.389 19.164 72.389 25.424C72.389 32.108 77.212 36 82.379 36C86.715 36 89.216 34.322 90.763 32.278C91.063 31.882 91.123 31.711 91.123 31.6C91.123 31.49 91.052 31.403 90.791 31.175L88.982 29.625C88.55 29.258 88.405 29.145 88.262 29.145C88.117 29.145 88.031 29.23 87.916 29.371C86.682 31.007 84.959 31.937 82.634 31.937C79.701 31.937 77.746 29.979 77.25 26.804H90.498C91.422 26.806 92 26.52 92 25.284V25.283ZM82.382 18.966C85.515 18.966 87.172 21.042 87.262 23.337H77.32C77.865 20.873 79.567 18.966 82.382 18.966Z" fill="#00A868" />
</svg>